<svg width="126" height="21" viewBox="0 0 126 21" fill="none" xmlns="http://www.w3.org/2000/svg">
<g clip-path="url(#clip0_1_2379)">
<path d="M6.96696 0.695865C4.96865 1.3891 3.24531 2.70487 2.05008 4.44993C0.854838 6.19499 0.250702 8.27734 0.326406 10.3911C0.402111 12.5049 1.15367 14.5387 2.47068 16.1938C3.78769 17.8489 5.60074 19.038 7.64353 19.5865C9.29966 20.0138 11.0348 20.0326 12.6998 19.6412C14.2081 19.3024 15.6026 18.5777 16.7467 17.5381C17.9374 16.423 18.8017 15.0044 19.2467 13.4349C19.7301 11.7281 19.8162 9.93327 19.4982 8.18805H10.1982V12.0459H15.5842C15.4765 12.6612 15.2458 13.2484 14.9059 13.7725C14.5661 14.2965 14.1239 14.7467 13.606 15.0959C12.9484 15.5311 12.207 15.8238 11.4295 15.9552C10.6497 16.1003 9.84986 16.1003 9.07009 15.9552C8.2797 15.792 7.53203 15.4658 6.87478 14.9974C5.81876 14.2499 5.02583 13.1879 4.60915 11.9631C4.18554 10.7152 4.18554 9.36246 4.60915 8.11461C4.90576 7.23995 5.39608 6.44358 6.04353 5.78493C6.78445 5.01734 7.72248 4.46867 8.75471 4.19911C9.78693 3.92955 10.8735 3.94951 11.8951 4.2568C12.6932 4.50168 13.423 4.92974 14.0263 5.5068C14.6336 4.90264 15.2399 4.29691 15.8451 3.68962C16.1576 3.36305 16.4982 3.05211 16.806 2.71774C15.885 1.86074 14.8039 1.19384 13.6248 0.75524C11.4774 -0.0244634 9.12787 -0.0454172 6.96696 0.695865Z" fill="black"/>
<path d="M6.96697 0.695892C9.12769 -0.0458941 11.4773 -0.0254919 13.6248 0.753704C14.8041 1.19528 15.8847 1.86539 16.8045 2.72558C16.492 3.05995 16.1623 3.37245 15.8435 3.69745C15.2373 4.30266 14.6315 4.90579 14.0263 5.50683C13.423 4.92976 12.6932 4.50171 11.8951 4.25683C10.8738 3.94846 9.78731 3.92734 8.75481 4.1958C7.72231 4.46426 6.7837 5.01193 6.04197 5.7787C5.39452 6.43735 4.9042 7.23373 4.60759 8.10839L1.36853 5.60058C2.52792 3.30146 4.53533 1.5428 6.96697 0.695892Z" fill="#E33629"/>
<path d="M0.509175 8.08496C0.683143 7.2221 0.972184 6.38651 1.36855 5.60059L4.60761 8.11465C4.184 9.36249 4.184 10.7152 4.60761 11.9631C3.52845 12.7964 2.44876 13.6339 1.36855 14.4756C0.376598 12.5011 0.07407 10.2514 0.509175 8.08496Z" fill="#F8BD00"/>
<path d="M10.1982 8.18652H19.4982C19.8162 9.93174 19.7301 11.7266 19.2466 13.4334C18.8017 15.0029 17.9374 16.4214 16.7466 17.5365C15.7013 16.7209 14.6513 15.9115 13.606 15.0959C14.1243 14.7463 14.5666 14.2957 14.9065 13.7711C15.2464 13.2465 15.4769 12.6586 15.5841 12.0428H10.1982C10.1966 10.7584 10.1982 9.47246 10.1982 8.18652Z" fill="#587DBD"/>
<path d="M1.36694 14.4756C2.44715 13.6423 3.52684 12.8048 4.60601 11.9631C5.02352 13.1884 5.81758 14.2505 6.87476 14.9975C7.53405 15.4637 8.28334 15.7873 9.07476 15.9475C9.85453 16.0925 10.6544 16.0925 11.4341 15.9475C12.2117 15.8161 12.9531 15.5233 13.6107 15.0881C14.656 15.9038 15.706 16.7131 16.7513 17.5288C15.6074 18.569 14.2129 19.2942 12.7044 19.6334C11.0395 20.0249 9.30432 20.0061 7.64819 19.5788C6.33835 19.229 5.11487 18.6125 4.05444 17.7678C2.93214 16.8766 2.01544 15.7536 1.36694 14.4756Z" fill="#319F43"/>
</g>
<path d="M40.5377 1.50024L42.4546 7.39982H48.6578L43.6393 11.046L45.5562 16.9455L40.5377 13.2994L35.5192 16.9455L37.4361 11.046L32.4176 7.39982H38.6208L40.5377 1.50024Z" fill="#FF9F0D"/>
<path d="M59.6136 1.50024L61.5305 7.39982H67.7337L62.7152 11.046L64.6321 16.9455L59.6136 13.2994L54.5952 16.9455L56.512 11.046L51.4936 7.39982H57.6967L59.6136 1.50024Z" fill="#FF9F0D"/>
<path d="M78.6894 1.50024L80.6063 7.39982H86.8095L81.791 11.046L83.7079 16.9455L78.6894 13.2994L73.671 16.9455L75.5878 11.046L70.5694 7.39982H76.7725L78.6894 1.50024Z" fill="#FF9F0D"/>
<path d="M97.7654 1.50024L99.6823 7.39982H105.885L100.867 11.046L102.784 16.9455L97.7654 13.2994L92.7469 16.9455L94.6638 11.046L89.6453 7.39982H95.8485L97.7654 1.50024Z" fill="#FF9F0D"/>
<path d="M116.841 1.50024L118.758 7.39982H124.961L119.943 11.046L121.86 16.9455L116.841 13.2994L111.823 16.9455L113.74 11.046L108.721 7.39982H114.924L116.841 1.50024Z" fill="#FF9F0D"/>
<defs>
<clipPath id="clip0_1_2379">
<rect width="20" height="20" fill="white" transform="translate(-0.000244141 0.0380859)"/>
</clipPath>
</defs>
</svg>
